<?xml version="1.0" encoding="utf-8"?>
<svg version="1.1" xmlns="http://www.w3.org/2000/svg" xmlns:xlink="http://www.w3.org/1999/xlink" x="0px" y="0px"
	 viewBox="0 0 256 256" style="enable-background:new 0 0 256 256;" xml:space="preserve">
<style type="text/css">
	.st0{fill:#56689B;}
	.st1{fill:#FFFFFF;}
</style>
<g>
	<rect y="0.3" class="st0" width="256" height="256"/>
	<g>
		<path class="st1" d="M151.2,196.9c1.6,0,3.2,0.5,4.5,1.3c12.5,8.1,28.6,13.7,42.3,15c-4.2-5.7-10.4-14.8-13.4-23
			c-0.4-0.9-0.6-1.9-0.6-3v0c0-2.9,1.5-5.5,3.8-7c0.3-0.2,0.9-0.7,1.7-1.3c19-14.7,30-35.7,30-57.6c0-42.9-41.1-77.8-91.5-77.8
			c-50.5,0-91.6,34.9-91.6,77.8c0,42.9,40.2,76.5,91.6,76.5c4.5,0,12.1-0.3,22.7-0.9C150.8,196.9,151,196.9,151.2,196.9z"/>
	</g>
	<path class="st0" d="M97.2,91.6c6.6-6.5,17.1-6.5,23.7,0l15.3,15.4l7.2-7.3l-15.3-15.4c-11.6-9.5-28.7-7.8-38.2,3.7
		c-8.2,10-8.2,24.4,0,34.4l15.3,15.3l7.2-7.3l-15.3-15.3C90.7,108.7,90.6,98.1,97.2,91.6C97.2,91.6,97.2,91.6,97.2,91.6z M109,111
		l30.5,30.5l7.7-7.4l-30.5-30.5L109,111z M166.2,122.5L151,107.3l-7.2,7.2l15.3,15.3c6.6,6.6,6.6,17.2,0,23.7
		c-6.6,6.6-17.2,6.6-23.7,0L120,138.2l-7.2,7.2l15.3,15.2c11.7,9.4,28.7,7.6,38.1-4.1C174.3,146.6,174.3,132.4,166.2,122.5z"/>
</g>
</svg>
